<svg width="30" height="30" viewBox="0 0 30 30" fill="none" xmlns="http://www.w3.org/2000/svg">
<rect width="30" height="30" rx="10" fill="#1D97F7"/>
<path d="M15.5917 16.1666C15.5142 16.2447 15.422 16.3067 15.3205 16.349C15.2189 16.3913 15.11 16.4131 15 16.4131C14.89 16.4131 14.7811 16.3913 14.6795 16.349C14.578 16.3067 14.4858 16.2447 14.4083 16.1666L10.5917 12.3416C10.5142 12.2635 10.422 12.2015 10.3205 12.1592C10.2189 12.1169 10.11 12.0951 10 12.0951C9.89 12.0951 9.78108 12.1169 9.67953 12.1592C9.57798 12.2015 9.48581 12.2635 9.40834 12.3416C9.25313 12.4978 9.16602 12.709 9.16602 12.9291C9.16602 13.1493 9.25313 13.3605 9.40834 13.5166L11.3208 15.4291L13.2333 17.3416C13.7021 17.8098 14.3375 18.0728 15 18.0728C15.6625 18.0728 16.2979 17.8098 16.7667 17.3416L20.5917 13.5166C20.7456 13.3614 20.8324 13.1519 20.8333 12.9333C20.834 12.8236 20.813 12.7149 20.7715 12.6134C20.73 12.5118 20.6689 12.4195 20.5917 12.3416C20.5142 12.2635 20.422 12.2015 20.3205 12.1592C20.2189 12.1169 20.11 12.0951 20 12.0951C19.89 12.0951 19.7811 12.1169 19.6795 12.1592C19.578 12.2015 19.4858 12.2635 19.4083 12.3416L15.5917 16.1666Z" fill="white"/>
</svg>
